<svg width="35" height="35" viewBox="0 0 27 28" fill="none" xmlns="http://www.w3.org/2000/svg">
<path d="M13.4024 0.00466018C13.3585 0.0125907 13.3151 0.0233437 13.2726 0.0368525C13.0381 0.0894004 12.8292 0.221619 12.6813 0.410978C12.5334 0.600337 12.4557 0.835118 12.4615 1.07531V2.11378H3.11538C2.28913 2.11378 1.49672 2.442 0.912475 3.02625C0.328227 3.6105 0 4.40291 0 5.22916L0 18.7292C0 20.4489 1.39569 21.8445 3.11538 21.8445H12.4615V22.234L6.81438 25.0575C6.56486 25.178 6.37342 25.3927 6.28218 25.6544C6.19094 25.916 6.20737 26.2032 6.32787 26.4527C6.44836 26.7022 6.66304 26.8937 6.92469 26.9849C7.18634 27.0762 7.47351 27.0597 7.72304 26.9392L12.4615 24.5705V24.9599C12.4615 25.2353 12.5709 25.4995 12.7657 25.6942C12.9604 25.889 13.2246 25.9984 13.5 25.9984C13.7754 25.9984 14.0396 25.889 14.2343 25.6942C14.4291 25.4995 14.5385 25.2353 14.5385 24.9599V24.5705L19.277 26.9392C19.5265 27.0597 19.8137 27.0762 20.0753 26.9849C20.337 26.8937 20.5516 26.7022 20.6721 26.4527C20.7926 26.2032 20.8091 25.916 20.7178 25.6544C20.6266 25.3927 20.4351 25.178 20.1856 25.0575L14.5385 22.234V21.8445H23.8846C25.6043 21.8445 27 20.4489 27 18.7292V5.22916C27 4.40291 26.6718 3.6105 26.0875 3.02625C25.5033 2.442 24.7109 2.11378 23.8846 2.11378H14.5385V1.07531C14.5437 0.927642 14.5174 0.780552 14.4612 0.643871C14.4051 0.507189 14.3204 0.384064 14.2129 0.282721C14.1053 0.181377 13.9774 0.104151 13.8376 0.0561994C13.6979 0.00824831 13.5495 -0.00932276 13.4024 0.00466018ZM2.07692 5.22916H24.9231V18.7292H2.07692V5.22916ZM21.6779 6.26762C21.4453 6.29263 21.2279 6.39545 21.061 6.55943L17.6538 9.96766L15.2851 7.59685C15.1717 7.48045 15.0325 7.39231 14.8788 7.3395C14.7251 7.2867 14.5611 7.27072 14.4001 7.29284C14.239 7.31496 14.0855 7.37457 13.9517 7.46688C13.8179 7.55918 13.7077 7.68159 13.6298 7.82428L10.5466 13.2118L9.28073 10.031C9.21926 9.86677 9.1172 9.72078 8.98407 9.60664C8.85094 9.4925 8.69107 9.41394 8.51937 9.37827C8.34768 9.34261 8.16975 9.351 8.00217 9.40267C7.8346 9.45434 7.68283 9.54761 7.56104 9.67377L4.44565 12.7892C4.34747 12.8873 4.26956 13.0038 4.2164 13.132C4.16323 13.2602 4.13585 13.3977 4.1358 13.5365C4.13575 13.6753 4.16304 13.8128 4.21612 13.941C4.2692 14.0693 4.34701 14.1858 4.44513 14.284C4.54325 14.3822 4.65975 14.4601 4.78798 14.5133C4.91621 14.5664 5.05365 14.5938 5.19246 14.5939C5.33127 14.5939 5.46873 14.5666 5.597 14.5136C5.72526 14.4605 5.84181 14.3827 5.94 14.2845L7.91931 12.3052L9.41262 16.0042C9.4831 16.1898 9.60525 16.3512 9.76463 16.4694C9.92401 16.5877 10.1139 16.6578 10.3119 16.6714C10.5099 16.6851 10.7076 16.6417 10.8817 16.5465C11.0559 16.4513 11.199 16.3081 11.2943 16.134L14.7669 10.0653L16.9082 12.2076C17.0051 12.3078 17.1211 12.3875 17.2494 12.4419C17.3776 12.4963 17.5155 12.5243 17.6549 12.5243C17.7942 12.5243 17.9321 12.4963 18.0604 12.4419C18.1887 12.3875 18.3047 12.3078 18.4015 12.2076L22.5554 8.05377C22.7194 7.90191 22.8301 7.70116 22.8709 7.48137C22.9117 7.26158 22.8805 7.03448 22.782 6.83384C22.6834 6.63319 22.5227 6.46971 22.3238 6.3677C22.1249 6.26569 21.8983 6.23059 21.6779 6.26762Z" fill="black"/>
</svg>
